<svg width="440" height="160" viewBox="0 0 440 160" fill="none" xmlns="http://www.w3.org/2000/svg">
    <path d="M90.1 110.5C89.3 110.5 88.5 110.1 88 109.3C87.3 108.1 87.6 106.6 88.8 105.8L93.7 102.7H93.8C96.4 101.2 98.1 98.3 98.1 95.3V63C98.1 60 96.5 57.1 93.8 55.6C93.8 55.6 93.8 55.6 93.7 55.6L65.8 38.2C64.6 37.5 63.5 38 63.1 38.2C62.7 38.4 61.7 39.2 61.7 40.6V77.1C61.7 79.8 63.1 82.2 65.3 83.6C67.6 85 70.3 85.1 72.7 83.9L79.6 80.5C80.8 79.9 82.3 80.4 83 81.6C83.6 82.8 83.1 84.3 81.9 85L75 88.4C71.1 90.4 66.5 90.2 62.7 87.8C59 85.5 56.7 81.5 56.7 77.1V40.6C56.7 37.8 58.2 35.3 60.6 33.9C63 32.5 65.9 32.5 68.4 33.9C68.4 33.9 68.4 33.9 68.5 33.9L96.4 51.3C100.6 53.7 103.1 58.2 103.1 63V95.4C103.1 100.2 100.5 104.7 96.4 107.1L91.5 110.2C91 110.4 90.6 110.5 90.1 110.5Z" fill="black" />
    <path d="M53.9 122.9C52.6 122.9 51.3 122.6 50.1 121.9L26.4 108.5C21.9 105.9 19 101 19 95.7V73C19 66.3 22.6 60.1 28.3 56.8L45 47C46.2 46.3 47.7 46.7 48.4 47.9C49.1 49.1 48.7 50.6 47.5 51.3L30.8 61.1C26.6 63.5 24 68.1 24 73V95.7C24 99.2 25.9 102.4 28.8 104.1L52.5 117.5C53.7 118.2 54.8 117.7 55.2 117.5C55.6 117.3 56.5 116.6 56.5 115.2V98.1C56.5 96.7 57.6 95.6 59 95.6C60.4 95.6 61.5 96.7 61.5 98.1V115.2C61.5 118 60.1 120.5 57.7 121.9C56.6 122.6 55.2 122.9 53.9 122.9Z" fill="black" />
    <path d="M90.3 80C91.6807 80 92.8 78.8807 92.8 77.5C92.8 76.1193 91.6807 75 90.3 75C88.9193 75 87.8 76.1193 87.8 77.5C87.8 78.8807 88.9193 80 90.3 80Z" fill="black" />
    <path d="M128.5 64.9C128.5 64.4 128.9 64 129.4 64H139.8C145.6 64 150.4 68.7 150.4 74.4C150.4 80.3 145.6 85 139.9 85H132.1V96.1C132.1 96.6 131.7 97 131.2 97H129.4C128.9 97 128.5 96.6 128.5 96.1V64.9V64.9ZM139.6 81.6C143.5 81.6 146.8 78.7 146.8 74.4C146.8 70.2 143.5 67.6 139.6 67.6H132.1V81.6H139.6Z" fill="black" />
    <path d="M164.2 74.8C170.2 74.8 175.2 80 175.2 86.1C175.2 92.3 170.3 97.6 164.2 97.6C158.2 97.6 153.2 92.4 153.2 86.1C153.2 80 158.1 74.8 164.2 74.8ZM164.2 94.4C168.5 94.4 171.7 90.6 171.7 86.1C171.7 81.7 168.5 77.9 164.2 77.9C159.9 77.9 156.7 81.6 156.7 86.1C156.7 90.6 159.9 94.4 164.2 94.4Z" fill="black" />
    <path d="M180 94.9C179.8 94.7 179.7 94.3 179.9 94L180.6 92.8C180.9 92.3 181.3 92.1 181.9 92.5C182.7 93.1 184.5 94.4 187.3 94.4C189.5 94.4 191 93.4 191 91.7C191 89.6 189.3 88.8 186.1 87.2C183.2 85.8 179.9 84.2 179.9 80.5C179.9 78.2 181.6 74.8 186.7 74.8C189.5 74.8 191.9 75.7 192.9 76.5C193.4 76.9 193.5 77.3 193.1 78L192.6 78.9C192.3 79.5 191.6 79.6 191.1 79.3C190.2 78.7 188.6 78 186.6 78C184.2 78 183.4 79.4 183.4 80.4C183.4 82.3 184.9 83 187.6 84.3C191.4 86 194.6 87.5 194.6 91.4C194.6 94.8 191.6 97.6 187.2 97.6C183.5 97.6 181.1 96 180 94.9Z" fill="black" />
    <path d="M198.8 78.3C198.1 78.3 197.7 77.8 197.7 77.3V76.4C197.7 75.8 198.1 75.4 198.8 75.4H201.7V69.4C201.7 68.8 202.2 68.4 202.7 68.4L204.2 68.3C204.8 68.3 205.2 68.8 205.2 69.3V75.4H211.6C212.2 75.4 212.7 75.8 212.7 76.4V77.3C212.7 77.9 212.2 78.3 211.6 78.3H205.2V91.3C205.2 93.6 205.9 94.4 207.1 94.4C209.1 94.4 210.5 93.6 211.4 93C212.2 92.5 212.5 92.9 212.8 93.4L213.2 94.4C213.5 95.1 213.4 95.4 212.8 95.8C211.9 96.5 209.6 97.5 206.7 97.5C202.5 97.5 201.7 94.9 201.7 91.5V78.3H198.8Z" fill="black" />
    <path d="M236.6 97.2C236.6 104.7 232 107.4 227.1 107.4C223.7 107.4 220.6 105.6 219.5 104.6C219.1 104.3 219 103.7 219.3 103.3L220.2 101.9C220.5 101.4 221.1 101.4 221.6 101.9C222.8 102.9 224.7 104.2 227.1 104.2C230.5 104.2 233.2 102.3 233.2 97.2V95.6C233.2 95.6 230.7 97.5 227.2 97.5C221.2 97.5 216.9 92.4 216.9 86.1C216.9 79.9 221.1 74.7 227.1 74.7C231 74.7 233.6 76.9 233.6 76.9L233.9 75.9C234.1 75.5 234.4 75.1 234.9 75.1H235.6C236.2 75.1 236.7 75.6 236.7 76.1L236.6 97.2ZM227.6 94.3C230.6 94.3 233.1 92.5 233.1 92.5V80.6C233.1 80.6 230.9 78 227.3 78C223 78 220.3 81.9 220.3 86.1C220.3 90.8 223.4 94.3 227.6 94.3Z" fill="black" />
    <path d="M244 76.3C244 75.8 244.5 75.3 245 75.3H245.8C246.2 75.3 246.6 75.5 246.7 76.1L247.1 77.7C247.1 77.7 249.3 74.9 253.8 74.9C255.5 74.9 258.1 75.1 257.6 76.6L257 78.3C256.8 79 256.2 79.1 255.7 78.8C255.2 78.6 254.4 78.2 253.3 78.2C249.1 78.2 247.4 81 247.4 81V96C247.4 96.6 246.9 97 246.4 97H245C244.4 97 244 96.5 244 96V76.3Z" fill="black" />
    <path d="M270.7 74.8C276.4 74.8 280.6 79 280.6 84.7C280.6 85.1 280.6 85.6 280.5 86C280.5 86.6 280 86.9 279.5 86.9H263.6C263.7 90.5 266.8 94.4 270.7 94.4C273.6 94.4 275.4 93.4 276.6 92.6C277.4 92.1 277.7 91.9 278.3 92.7L278.9 93.5C279.3 94.2 279.5 94.4 278.7 95C277.4 96 274.5 97.5 270.7 97.5C264.1 97.5 260.1 92.3 260.1 86.1C260.1 80 264.1 74.8 270.7 74.8ZM277.1 84.2C277 81 274.5 78 270.7 78C267 78 264.1 80.8 263.7 84.2H277.1Z" fill="black" />
    <path d="M285.1 94.9C284.9 94.7 284.8 94.3 285 94L285.7 92.8C286 92.3 286.4 92.1 287 92.5C287.8 93.1 289.6 94.4 292.4 94.4C294.6 94.4 296.1 93.4 296.1 91.7C296.1 89.6 294.4 88.8 291.2 87.2C288.3 85.8 285 84.2 285 80.5C285 78.2 286.7 74.8 291.8 74.8C294.6 74.8 297 75.7 298 76.5C298.5 76.9 298.6 77.3 298.2 78L297.7 78.9C297.4 79.5 296.7 79.6 296.2 79.3C295.3 78.7 293.7 78 291.7 78C289.3 78 288.5 79.4 288.5 80.4C288.5 82.3 290 83 292.7 84.3C296.5 86 299.7 87.5 299.7 91.4C299.7 94.8 296.7 97.6 292.3 97.6C288.7 97.6 286.3 96 285.1 94.9Z" fill="black" />
    <path d="M307.5 91.3C309.2 91.3 310.6 92.7 310.6 94.4C310.6 96.1 309.2 97.6 307.5 97.6C305.8 97.6 304.4 96.1 304.4 94.4C304.4 92.7 305.8 91.3 307.5 91.3Z" fill="black" />
    <path d="M320.4 99.4C320.4 105.3 317.8 108 314.2 108.7C313.7 108.8 313.4 108.6 313.2 108.1L312.7 106.7C312.5 106 312.8 105.6 313.4 105.4C315.6 104.6 316.9 103.4 316.9 99.6V76.3C316.9 75.7 317.4 75.3 317.9 75.3H319.3C319.8 75.3 320.3 75.7 320.3 76.3V99.4H320.4ZM316 67.1C316 65.6 317.1 64.5 318.6 64.5C320 64.5 321.1 65.6 321.1 67.1C321.1 68.5 320 69.6 318.6 69.6C317.1 69.6 316 68.4 316 67.1Z" fill="black" />
    <path d="M326.6 94.9C326.4 94.7 326.3 94.3 326.5 94L327.2 92.8C327.5 92.3 327.9 92.1 328.5 92.5C329.3 93.1 331.1 94.4 333.9 94.4C336.1 94.4 337.6 93.4 337.6 91.7C337.6 89.6 335.9 88.8 332.7 87.2C329.8 85.8 326.5 84.2 326.5 80.5C326.5 78.2 328.2 74.8 333.3 74.8C336.1 74.8 338.5 75.7 339.5 76.5C340 76.9 340.1 77.3 339.7 78L339.2 78.9C338.9 79.5 338.2 79.6 337.7 79.3C336.8 78.7 335.2 78 333.2 78C330.8 78 330 79.4 330 80.4C330 82.3 331.5 83 334.2 84.3C338 86 341.2 87.5 341.2 91.4C341.2 94.8 338.2 97.6 333.8 97.6C330.2 97.6 327.8 96 326.6 94.9Z" fill="black" />
</svg>
