<?xml version="1.0" encoding="utf-8"?>
<!-- Generator: Adobe Illustrator 24.0.1, SVG Export Plug-In . SVG Version: 6.00 Build 0)  -->
<svg version="1.1" id="Layer_1" xmlns="http://www.w3.org/2000/svg" xmlns:xlink="http://www.w3.org/1999/xlink" x="0px" y="0px"
	 viewBox="0 0 440 120" style="enable-background:new 0 0 440 120;" xml:space="preserve">
<g>
	<path d="M90.1,90.5c-0.8,0-1.6-0.4-2.1-1.2c-0.7-1.2-0.4-2.7,0.8-3.5l4.9-3.1h0.1c2.6-1.5,4.3-4.4,4.3-7.4V43c0-3-1.6-5.9-4.3-7.4
		c0,0,0,0-0.1,0L65.8,18.2c-1.2-0.7-2.3-0.2-2.7,0s-1.4,1-1.4,2.4v36.5c0,2.7,1.4,5.1,3.6,6.5c2.3,1.4,5,1.5,7.4,0.3l6.9-3.4
		c1.2-0.6,2.7-0.1,3.4,1.1c0.6,1.2,0.1,2.7-1.1,3.4L75,68.4c-3.9,2-8.5,1.8-12.3-0.6c-3.7-2.3-6-6.3-6-10.7V20.6
		c0-2.8,1.5-5.3,3.9-6.7s5.3-1.4,7.8,0c0,0,0,0,0.1,0l27.9,17.4c4.2,2.4,6.7,6.9,6.7,11.7v32.4c0,4.8-2.6,9.3-6.7,11.7l-4.9,3.1
		C91,90.4,90.6,90.5,90.1,90.5z"/>
</g>
<g>
	<path d="M53.9,102.9c-1.3,0-2.6-0.3-3.8-1L26.4,88.5l0,0C21.9,85.9,19,81,19,75.7V53c0-6.7,3.6-12.9,9.3-16.2L45,27
		c1.2-0.7,2.7-0.3,3.4,0.9c0.7,1.2,0.3,2.7-0.9,3.4l-16.7,9.8l0,0c-4.2,2.4-6.8,7-6.8,11.9v22.7c0,3.5,1.9,6.7,4.8,8.4l23.7,13.4
		l0,0c1.2,0.7,2.3,0.2,2.7,0s1.3-0.9,1.3-2.3V78.1c0-1.4,1.1-2.5,2.5-2.5s2.5,1.1,2.5,2.5v17.1c0,2.8-1.4,5.3-3.8,6.7
		C56.6,102.6,55.2,102.9,53.9,102.9z"/>
</g>
<g>
	<path d="M128.5,44.9c0-0.5,0.4-0.9,0.9-0.9h10.4c5.8,0,10.6,4.7,10.6,10.4c0,5.9-4.8,10.6-10.5,10.6h-7.8v11.1
		c0,0.5-0.4,0.9-0.9,0.9h-1.8c-0.5,0-0.9-0.4-0.9-0.9V44.9z M139.6,61.6c3.9,0,7.2-2.9,7.2-7.2c0-4.2-3.3-6.8-7.2-6.8h-7.5v14H139.6
		z"/>
	<path d="M164.2,54.8c6,0,11,5.2,11,11.3c0,6.2-4.9,11.5-11,11.5c-6,0-11-5.2-11-11.5C153.2,60,158.1,54.8,164.2,54.8z M164.2,74.4
		c4.3,0,7.5-3.8,7.5-8.3c0-4.4-3.2-8.2-7.5-8.2s-7.5,3.7-7.5,8.2S159.9,74.4,164.2,74.4z"/>
	<path d="M180,74.9c-0.2-0.2-0.3-0.6-0.1-0.9l0.7-1.2c0.3-0.5,0.7-0.7,1.3-0.3c0.8,0.6,2.6,1.9,5.4,1.9c2.2,0,3.7-1,3.7-2.7
		c0-2.1-1.7-2.9-4.9-4.5c-2.9-1.4-6.2-3-6.2-6.7c0-2.3,1.7-5.7,6.8-5.7c2.8,0,5.2,0.9,6.2,1.7c0.5,0.4,0.6,0.8,0.2,1.5l-0.5,0.9
		c-0.3,0.6-1,0.7-1.5,0.4c-0.9-0.6-2.5-1.3-4.5-1.3c-2.4,0-3.2,1.4-3.2,2.4c0,1.9,1.5,2.6,4.2,3.9c3.8,1.7,7,3.2,7,7.1
		c0,3.4-3,6.2-7.4,6.2C183.5,77.6,181.1,76,180,74.9z"/>
	<path d="M198.8,58.3c-0.7,0-1.1-0.5-1.1-1v-0.9c0-0.6,0.4-1,1.1-1h2.9v-6c0-0.6,0.5-1,1-1l1.5-0.1c0.6,0,1,0.5,1,1v6.1h6.4
		c0.6,0,1.1,0.4,1.1,1v0.9c0,0.6-0.5,1-1.1,1h-6.4v13c0,2.3,0.7,3.1,1.9,3.1c2,0,3.4-0.8,4.3-1.4c0.8-0.5,1.1-0.1,1.4,0.4l0.4,1
		c0.3,0.7,0.2,1-0.4,1.4c-0.9,0.7-3.2,1.7-6.1,1.7c-4.2,0-5-2.6-5-6V58.3H198.8z"/>
	<path d="M236.6,77.2c0,7.5-4.6,10.2-9.5,10.2c-3.4,0-6.5-1.8-7.6-2.8c-0.4-0.3-0.5-0.9-0.2-1.3l0.9-1.4c0.3-0.5,0.9-0.5,1.4,0
		c1.2,1,3.1,2.3,5.5,2.3c3.4,0,6.1-1.9,6.1-7v-1.6c0,0-2.5,1.9-6,1.9c-6,0-10.3-5.1-10.3-11.4c0-6.2,4.2-11.4,10.2-11.4
		c3.9,0,6.5,2.2,6.5,2.2l0.3-1c0.2-0.4,0.5-0.8,1-0.8h0.7c0.6,0,1.1,0.5,1.1,1L236.6,77.2L236.6,77.2z M227.6,74.3
		c3,0,5.5-1.8,5.5-1.8V60.6c0,0-2.2-2.6-5.8-2.6c-4.3,0-7,3.9-7,8.1C220.3,70.8,223.4,74.3,227.6,74.3z"/>
	<path d="M244,56.3c0-0.5,0.5-1,1-1h0.8c0.4,0,0.8,0.2,0.9,0.8l0.4,1.6c0,0,2.2-2.8,6.7-2.8c1.7,0,4.3,0.2,3.8,1.7l-0.6,1.7
		c-0.2,0.7-0.8,0.8-1.3,0.5c-0.5-0.2-1.3-0.6-2.4-0.6c-4.2,0-5.9,2.8-5.9,2.8v15c0,0.6-0.5,1-1,1H245c-0.6,0-1-0.5-1-1V56.3
		L244,56.3z"/>
	<path d="M270.7,54.8c5.7,0,9.9,4.2,9.9,9.9c0,0.4,0,0.9-0.1,1.3c0,0.6-0.5,0.9-1,0.9h-15.9c0.1,3.6,3.2,7.5,7.1,7.5
		c2.9,0,4.7-1,5.9-1.8c0.8-0.5,1.1-0.7,1.7,0.1l0.6,0.8c0.4,0.7,0.6,0.9-0.2,1.5c-1.3,1-4.2,2.5-8,2.5c-6.6,0-10.6-5.2-10.6-11.4
		C260.1,60,264.1,54.8,270.7,54.8z M277.1,64.2c-0.1-3.2-2.6-6.2-6.4-6.2c-3.7,0-6.6,2.8-7,6.2H277.1z"/>
	<path d="M285.1,74.9c-0.2-0.2-0.3-0.6-0.1-0.9l0.7-1.2c0.3-0.5,0.7-0.7,1.3-0.3c0.8,0.6,2.6,1.9,5.4,1.9c2.2,0,3.7-1,3.7-2.7
		c0-2.1-1.7-2.9-4.9-4.5c-2.9-1.4-6.2-3-6.2-6.7c0-2.3,1.7-5.7,6.8-5.7c2.8,0,5.2,0.9,6.2,1.7c0.5,0.4,0.6,0.8,0.2,1.5l-0.5,0.9
		c-0.3,0.6-1,0.7-1.5,0.4c-0.9-0.6-2.5-1.3-4.5-1.3c-2.4,0-3.2,1.4-3.2,2.4c0,1.9,1.5,2.6,4.2,3.9c3.8,1.7,7,3.2,7,7.1
		c0,3.4-3,6.2-7.4,6.2C288.7,77.6,286.3,76,285.1,74.9z"/>
	<path d="M307.5,71.3c1.7,0,3.1,1.4,3.1,3.1s-1.4,3.2-3.1,3.2s-3.1-1.5-3.1-3.2C304.4,72.7,305.8,71.3,307.5,71.3z"/>
	<path d="M320.4,79.4c0,5.9-2.6,8.6-6.2,9.3c-0.5,0.1-0.8-0.1-1-0.6l-0.5-1.4c-0.2-0.7,0.1-1.1,0.7-1.3c2.2-0.8,3.5-2,3.5-5.8V56.3
		c0-0.6,0.5-1,1-1h1.4c0.5,0,1,0.4,1,1v23.1H320.4z M316,47.1c0-1.5,1.1-2.6,2.6-2.6c1.4,0,2.5,1.1,2.5,2.6c0,1.4-1.1,2.5-2.5,2.5
		C317.1,49.6,316,48.4,316,47.1z"/>
	<path d="M326.6,74.9c-0.2-0.2-0.3-0.6-0.1-0.9l0.7-1.2c0.3-0.5,0.7-0.7,1.3-0.3c0.8,0.6,2.6,1.9,5.4,1.9c2.2,0,3.7-1,3.7-2.7
		c0-2.1-1.7-2.9-4.9-4.5c-2.9-1.4-6.2-3-6.2-6.7c0-2.3,1.7-5.7,6.8-5.7c2.8,0,5.2,0.9,6.2,1.7c0.5,0.4,0.6,0.8,0.2,1.5l-0.5,0.9
		c-0.3,0.6-1,0.7-1.5,0.4c-0.9-0.6-2.5-1.3-4.5-1.3c-2.4,0-3.2,1.4-3.2,2.4c0,1.9,1.5,2.6,4.2,3.9c3.8,1.7,7,3.2,7,7.1
		c0,3.4-3,6.2-7.4,6.2C330.2,77.6,327.8,76,326.6,74.9z"/>
</g>
<g>
	<circle cx="90.3" cy="57.5" r="2.5"/>
</g>
</svg>
